<svg fill="#51A7F9" xmlns="http://www.w3.org/2000/svg" xmlns:xlink="http://www.w3.org/1999/xlink" version="1.1" x="0px" y="0px" viewBox="0 0 100 100" style="enable-background:new 0 0 100 100;" xml:space="preserve"><g><path d="M36.5,86c8,0,14.5-5.6,14.5-12.4c0-0.2,0-0.4,0-0.6h0V27.8c3.1,1.2,5.7,2.5,7.9,3.8c3.8,2.4,4.2,7.8,0.9,10.8l0,0L61,44   l1.3,1.5c0.4-0.3,8.8-7.6,7.1-16.5c-1.3-6.7-7.9-12-19.7-15.9L47,12.2v10v42.9c-2.6-2.4-6.4-3.9-10.5-3.9c-8,0-14.5,5.6-14.5,12.4   C22,80.4,28.5,86,36.5,86z"></path></g></svg>