<?xml version="1.0" encoding="UTF-8" standalone="no"?>
<!-- Created with Inkscape (http://www.inkscape.org/) -->

<svg
   xmlns:dc="http://purl.org/dc/elements/1.1/"
   xmlns:cc="http://creativecommons.org/ns#"
   xmlns:rdf="http://www.w3.org/1999/02/22-rdf-syntax-ns#"
   xmlns:svg="http://www.w3.org/2000/svg"
   xmlns="http://www.w3.org/2000/svg"
   xmlns:sodipodi="http://sodipodi.sourceforge.net/DTD/sodipodi-0.dtd"
   xmlns:inkscape="http://www.inkscape.org/namespaces/inkscape"
   width="8.0380726in"
   height="4.4587293in"
   viewBox="-2.7755576e-017 0.1 204.16704 113.25173"
   version="1.1"
   id="svg8"
   inkscape:version="0.92.3 (2405546, 2018-03-11)"
   sodipodi:docname="Natural-Rythms-Logo.svg">
  <defs
     id="defs2" />
  <sodipodi:namedview
     id="base"
     pagecolor="#ffffff"
     bordercolor="#666666"
     borderopacity="1.0"
     inkscape:pageopacity="0.0"
     inkscape:pageshadow="2"
     inkscape:zoom="0.35"
     inkscape:cx="339.85445"
     inkscape:cy="421.83379"
     inkscape:document-units="mm"
     inkscape:current-layer="layer1"
     showgrid="true"
     showguides="false"
     inkscape:window-width="1600"
     inkscape:window-height="837"
     inkscape:window-x="-8"
     inkscape:window-y="-8"
     inkscape:window-maximized="1"
     units="in"
     viewbox-x="-2.7755576e-017"
     viewbox-y="0.1"
     scale-x="1"
     fit-margin-top="0.2"
     fit-margin-left="0.2"
     fit-margin-right="0.2"
     fit-margin-bottom="0.2">
    <inkscape:grid
       type="xygrid"
       id="grid10"
       originx="-15.913511"
       originy="-36.556476" />
  </sodipodi:namedview>
  <metadata
     id="metadata5">
    <rdf:RDF>
      <cc:Work
         rdf:about="">
        <dc:format>image/svg+xml</dc:format>
        <dc:type
           rdf:resource="http://purl.org/dc/dcmitype/StillImage" />
        <dc:title></dc:title>
      </cc:Work>
    </rdf:RDF>
  </metadata>
  <g
     inkscape:label="Layer 1"
     inkscape:groupmode="layer"
     id="layer1"
     transform="translate(-15.913511,-147.1918)">
    <g
       style="fill:#51a7f9"
       id="g26"
       transform="matrix(1.5505428,0,0,1.2881933,107.04116,139.05528)">
      <g
         id="g14">
        <path
           id="path12"
           d="m 36.5,86 c 8,0 14.5,-5.6 14.5,-12.4 0,-0.2 0,-0.4 0,-0.6 v 0 -45.2 c 3.1,1.2 5.7,2.5 7.9,3.8 3.8,2.4 4.2,7.8 0.9,10.8 v 0 L 61,44 62.3,45.5 C 62.7,45.2 71.1,37.9 69.4,29 68.1,22.3 61.5,17 49.7,13.1 L 47,12.2 v 10 42.9 C 44.4,62.7 40.6,61.2 36.5,61.2 28.5,61.2 22,66.8 22,73.6 22,80.4 28.5,86 36.5,86 Z"
           inkscape:connector-curvature="0" />
      </g>
    </g>
    <g
       style="fill:#51a7f9"
       id="g54"
       transform="matrix(1.0852143,0,0,1.1512232,4.3695312,146.31996)">
      <path
         id="path28"
         d="M 76.139793,54.185623 C 82.485245,49.37748 86.634354,42.374229 87.000519,34.534866 87.732521,18.960577 73.455345,5.79036 55.151001,5.2677355 37.700935,4.8496361 22.935316,16.556503 22.081039,31.503643 c -0.121946,2.195023 0,4.390045 0.488112,6.480541 0.244221,0.940724 0,1.985974 -0.610058,2.822174 -1.586279,2.508595 -5.003387,7.839447 -6.467394,12.229492 -0.976223,3.03122 2.196337,3.135746 9.029898,3.344796 l 0.73233,9.616371 c 0.121946,6.898643 4.148785,9.929863 12.690897,8.989136 l 2.44056,-0.104523 c 1.342388,-0.104523 2.440555,0.836197 2.318611,1.985977 l 5.394207,17.938995 31.63882,-11.443832 c 0,0 -5.793564,-13.393806 -6.281677,-18.411003 -1.569847,-6.967255 2.684448,-10.766144 2.684448,-10.766144 z m -4.783165,-5.636536 c -10.063312,8.798169 -16.869262,-0.400268 -16.869262,-0.400268 -1.486687,0.972114 -3.488106,0.743343 -5.203564,0.514652 -1.944229,-0.228771 -3.888458,-0.972114 -5.089176,-2.573265 -0.629124,-0.857731 -0.972279,-1.829845 -1.086666,-2.85915 -5.089508,2.001419 -12.408877,0.571846 -14.753456,-4.746269 -1.77265,-3.945648 -1.029143,-11.43668 3.259664,-13.723984 0.343157,-2.516157 1.029143,-4.746267 3.144949,-6.404613 2.115807,-1.601155 4.689156,-2.516075 7.376564,-2.344498 3.660015,-4.231613 10.807808,-4.746266 15.782601,-2.63046 2.744926,-1.315189 5.60424,-1.143693 8.463226,0.114386 3.202469,1.372382 5.318275,3.087922 6.404617,5.889878 5.203888,2.173 7.60566,7.319452 6.97654,12.980723 -0.228775,2.17292 -0.686318,4.288726 -1.944229,5.947071 0.400024,4.688995 -2.287384,8.691837 -6.461808,10.235797 z"
         inkscape:connector-curvature="0" />
      <path
         id="path30"
         d="m 67.400948,24.604444 c -0.572487,-0.588068 -1.405854,-0.899749 -2.410286,-0.899749 l -1.159058,-7.98e-4 0.210114,-1.140245 c 0.206977,-1.120808 -0.399098,-2.136131 -0.943505,-2.790676 -1.393371,-1.673782 -3.832542,-2.799227 -6.068649,-2.799227 -0.22649,0 -0.463943,0.01248 -0.709168,0.03982 -1.448791,0.163242 -3.156166,0.88801 -4.226985,3.123392 l -0.375657,0.7849 -0.819305,-0.292875 c -0.01326,-0.0047 -1.422233,-0.496755 -2.862495,-0.496755 -2.189232,0 -2.63678,1.071636 -2.762501,2.030721 l 0.03902,2.036881 h -0.984848 c -0.20618,0 -0.408538,0.02192 -0.606876,0.05863 -1.591,0.292875 -2.894562,1.670646 -2.894562,2.785148 0,0.73571 0.196831,1.787037 1.14032,2.621924 0.974777,0.861524 2.572735,1.334018 4.622169,1.335632 h 9.505227 c 1.810463,0.0015 5.086116,-7.97e-4 6.812202,0 h 0.007 7.24e-4 c 3.553742,0 5.282151,-1.4137 5.284546,-4.338646 0,-0.79907 -0.282806,-1.529348 -0.797462,-2.058081 z"
         inkscape:connector-curvature="0" />
      <path
         id="path32"
         d="m 46.930023,34.158859 c -0.139797,0.06798 -0.271843,0.160107 -0.387413,0.274884 -0.555275,0.555366 -0.555275,1.455116 0,2.01041 0.556091,0.555366 1.455044,0.552956 2.009613,0 0.554569,-0.555294 1.138725,-2.635204 0.882557,-2.890575 -0.291279,-0.291356 -1.976024,0.350631 -2.504757,0.605281 z"
         inkscape:connector-curvature="0" />
      <path
         id="path34"
         d="m 53.630512,34.158859 c -0.139816,0.06798 -0.271767,0.160107 -0.387413,0.274884 -0.555294,0.555366 -0.555294,1.455116 0,2.01041 0.556072,0.555366 1.455822,0.552956 2.010391,0 0.55457,-0.555294 1.13802,-2.635204 0.88176,-2.890575 -0.291279,-0.291356 -1.975208,0.350631 -2.504738,0.605281 z"
         inkscape:connector-curvature="0" />
      <path
         id="path36"
         d="m 53.630512,40.965534 c -0.139816,0.06718 -0.271767,0.159405 -0.387413,0.274975 -0.555294,0.554478 -0.555294,1.455028 0,2.009598 0.556072,0.555294 1.455822,0.553772 2.010391,0 0.55457,-0.554569 1.13802,-2.635185 0.88176,-2.890633 -0.291279,-0.291279 -1.975208,0.351486 -2.504738,0.60606 z"
         inkscape:connector-curvature="0" />
      <path
         id="path38"
         d="m 59.991238,34.158859 c -0.139817,0.06798 -0.271767,0.160107 -0.38662,0.274884 -0.555294,0.555366 -0.555294,1.455116 0,2.01041 0.55537,0.555366 1.45512,0.552956 2.009598,0 0.554569,-0.555294 1.138019,-2.635204 0.882557,-2.890575 -0.291283,-0.291356 -1.976006,0.350631 -2.505535,0.605281 z"
         inkscape:connector-curvature="0" />
    </g>
  </g>
</svg>
