<svg fill="#51A7F9" xmlns="http://www.w3.org/2000/svg" xmlns:xlink="http://www.w3.org/1999/xlink" version="1.0" x="0px" y="0px" viewBox="0 0 100 100" enable-background="new 0 0 100 100" xml:space="preserve"><path d="M76.1397934,54.1856232c6.3454514-4.8081436,10.4945602-11.8113937,10.8607254-19.6507568  C87.7325211,18.960577,73.4553452,5.79036,55.151001,5.2677355C37.7009354,4.8496361,22.9353161,16.5565033,22.0810394,31.503643  c-0.1219463,2.1950226,0,4.3900452,0.4881115,6.4805412c0.2442207,0.9407234,0,1.9859734-0.6100578,2.8221741  c-1.5862789,2.5085945-5.0033875,7.839447-6.4673939,12.2294922c-0.976223,3.0312195,2.1963367,3.135746,9.0298977,3.3447952  l0.7323303,9.6163712c0.1219463,6.8986435,4.1487846,9.929863,12.690897,8.9891357l2.4405594-0.1045227  c1.3423882-0.1045227,2.4405556,0.8361969,2.3186111,1.9859772l5.394207,17.9389954l31.6388206-11.4438324  c0,0-5.7935638-13.3938065-6.2816772-18.4110031C71.885498,57.9845123,76.1397934,54.1856232,76.1397934,54.1856232z   M71.3566284,48.5490875c-10.0633125,8.7981682-16.8692627-0.4002686-16.8692627-0.4002686  c-1.4866867,0.9721146-3.4881058,0.7433434-5.2035637,0.5146523c-1.9442291-0.2287712-3.8884583-0.9721146-5.0891762-2.5732651  c-0.6291237-0.8577309-0.9722786-1.8298454-1.0866661-2.8591499c-5.0895081,2.0014191-12.4088764,0.571846-14.7534561-4.7462692  c-1.7726498-3.9456482-1.0291424-11.4366798,3.2596645-13.7239838c0.3431568-2.5161572,1.0291424-4.7462673,3.144949-6.4046135  c2.1158066-1.6011543,4.6891556-2.5160751,7.376564-2.3444977c3.6600151-4.2316132,10.8078079-4.7462664,15.7826004-2.6304598  c2.7449265-1.3151894,5.6042404-1.143693,8.4632263,0.1143856c3.2024689,1.3723822,5.3182755,3.0879221,6.4046173,5.8898783  c5.2038879,2.1730003,7.6056595,7.3194523,6.9765396,12.9807224c-0.228775,2.1729202-0.6863174,4.2887268-1.9442291,5.9470711  C78.2184601,43.002285,75.5310516,47.005127,71.3566284,48.5490875z"></path><path d="M67.4009476,24.6044445c-0.5724869-0.588068-1.4058533-0.8997498-2.4102859-0.8997498l-1.1590576-0.0007973  l0.2101135-1.1402454c0.2069778-1.1208076-0.3990974-2.1361313-0.9435043-2.7906761  c-1.3933716-1.6737823-3.8325424-2.7992268-6.0686493-2.7992268c-0.22649,0-0.4639435,0.0124836-0.7091675,0.0398235  c-1.4487915,0.1632423-3.1561661,0.88801-4.2269859,3.1233921l-0.3756561,0.7849007l-0.8193054-0.2928753  c-0.0132637-0.0047302-1.4222336-0.4967556-2.8624954-0.4967556c-2.1892319,0-2.6367798,1.0716362-2.7625008,2.0307217  l0.0390244,2.0368805h-0.984848c-0.2061806,0-0.4085388,0.0219231-0.6068764,0.05863  c-1.5909996,0.2928753-2.8945618,1.6706467-2.8945618,2.7851486c0,0.7357101,0.1968307,1.7870369,1.1403198,2.6219234  c0.9747772,0.8615246,2.5727348,1.3340187,4.6221695,1.3356323h9.5052261c1.810463,0.0015202,5.0861168-0.0007973,6.8122025,0  h0.0070305h0.0007248c3.5537415,0,5.2821503-1.4137001,5.2845459-4.3386459  C68.19841,25.8634548,67.9156036,25.1331768,67.4009476,24.6044445z"></path><path d="M46.9300232,34.1588593c-0.1397972,0.0679779-0.271843,0.1601067-0.387413,0.2748833  c-0.555275,0.5553665-0.555275,1.4551163,0,2.0104103c0.5560913,0.5553665,1.4550438,0.5529556,2.009613,0  c0.5545692-0.555294,1.1387253-2.6352043,0.8825569-2.8905754C49.1435013,33.2622223,47.4587555,33.9042091,46.9300232,34.1588593z"></path><path d="M53.6305122,34.1588593c-0.1398163,0.0679779-0.2717667,0.1601067-0.387413,0.2748833  c-0.555294,0.5553665-0.555294,1.4551163,0,2.0104103c0.5560722,0.5553665,1.455822,0.5529556,2.0103912,0  c0.5545692-0.555294,1.1380196-2.6352043,0.8817596-2.8905754C55.8439713,33.2622223,54.1600418,33.9042091,53.6305122,34.1588593z"></path><path d="M53.6305122,40.9655342c-0.1398163,0.0671806-0.2717667,0.1594048-0.387413,0.2749748  c-0.555294,0.5544777-0.555294,1.4550285,0,2.0095978c0.5560722,0.555294,1.455822,0.553772,2.0103912,0  c0.5545692-0.5545692,1.1380196-2.6351852,0.8817596-2.8906326C55.8439713,40.0681953,54.1600418,40.7109604,53.6305122,40.9655342z  "></path><path d="M59.9912376,34.1588593c-0.1398163,0.0679779-0.2717667,0.1601067-0.3866196,0.2748833  c-0.555294,0.5553665-0.555294,1.4551163,0,2.0104103c0.5553703,0.5553665,1.4551201,0.5529556,2.0095978,0  c0.5545692-0.555294,1.1380196-2.6352043,0.8825569-2.8905754C62.2054901,33.2622223,60.5207672,33.9042091,59.9912376,34.1588593z"></path></svg>